Genre:Action | Thriller
Language:English
IMDb:http://www.imdb.com/title/tt0944835/
Source:CAMRip PROPER.rus/EPIDEMZ.NET.Thanks
Source audio:Own/Hogs.Thanks
......................................................
General
Complete name : Salt.Cam.2010.V2.XviD.FEEL-FREE
Format : AVI
Format/Info : Audio Video Interleave
File size : 1.07 GiB
Duration : 1h 30mn
Overall bit rate : 1 691 Kbps
Writing library : VirtualDubMod build 2550/release
......................................................
Video
ID : 0
Format : MPEG-4 Visual
Format profile : AdvancedSimple@L5
Format settings, BVOP : Yes
Format settings, QPel : No
Format settings, GMC : No warppoints
Format settings, Matrix : Custom
Codec ID : XVID
Codec ID/Hint : XviD
Duration : 1h 30mn
Bit rate : 1 425 Kbps
Width : 720 pixels
Height : 304 pixels
Display aspect ratio : 2.35:1
Frame rate : 25.000 fps
Resolution : 24 bits
Colorimetry : 4:2:0
Scan type : Progressive
Bits/(Pixel*Frame) : 0.260
Stream size : 925 MiB (84%)
Writing library : XviD 1.2.1 (UTC 2008-12-04)
.......................................................
Audio
ID : 1
Format : MPEG Audio
Codec ID : 55
Codec ID/Hint : MP3
Duration : 1h 30mn
Bit rate : 256 Kbps
Channel(s) : 2 channels
Sampling rate : 48.0 KHz
Stream size : 166 MiB (15%)
Alignment : Split accross interleaves
Interleave, duration : 40 ms (1.00 video frame)
Interleave, preload duration : 500 ms
......................................................
Plot:
As a CIA officer, Evelyn Salt swore an oath to duty, honor and country. Her loyalty will be tested when a defector accuses her of being a Russian spy
...................................................